<svg xmlns="http://www.w3.org/2000/svg" xmlns:xlink="http://www.w3.org/1999/xlink" width="200" zoomAndPan="magnify" viewBox="0 0 150 74.999997" height="100" preserveAspectRatio="xMidYMid meet" version="1.0"><defs><filter x="0%" y="0%" width="100%" height="100%" id="ad2e9a9048"><feColorMatrix values="0 0 0 0 1 0 0 0 0 1 0 0 0 0 1 0 0 0 1 0" color-interpolation-filters="sRGB"/></filter><g/><mask id="6fabbe6102"><g filter="url(#ad2e9a9048)"><rect x="-15" width="180" fill="#000000" y="-7.5" height="89.999996" fill-opacity="0.9176"/></g></mask><clipPath id="d5998295c2"><rect x="0" width="147" y="0" height="71"/></clipPath></defs><rect x="-15" width="180" fill="#ffffff" y="-7.5" height="89.999996" fill-opacity="1"/><rect x="-15" width="180" fill="#ffffff" y="-7.5" height="89.999996" fill-opacity="1"/><rect x="-15" width="180" fill="#252827" y="-7.5" height="89.999996" fill-opacity="1"/><g mask="url(#6fabbe6102)"><g transform="matrix(1, 0, 0, 1, 0, 4)"><g clip-path="url(#d5998295c2)"><g fill="#ffffff" fill-opacity="1"><g transform="translate(0.796878, 57.185563)"><g><path d="M 37.339844 -50.078125 L 37.339844 -37.261719 L 17.324219 -26.660156 L 37.261719 -16.058594 L 37.261719 -3.402344 L 3.558594 -21.28125 L 3.558594 -32.199219 Z M 43.035156 -51.578125 L 38.210938 -51.578125 L 2.609375 -32.75 L 2.609375 -20.726562 L 38.210938 -1.820312 L 42.957031 -1.820312 L 42.957031 -16.613281 L 24.128906 -26.660156 L 43.035156 -36.628906 Z M 43.035156 -51.578125 "/></g></g></g><g fill="#ffffff" fill-opacity="1"><g transform="translate(46.438476, 57.185563)"><g><path d="M 22.152344 -49.445312 C 24.050781 -52.84375 24.128906 -52.925781 24.367188 -53.320312 C 25 -54.269531 26.105469 -54.742188 27.371094 -54.742188 C 29.902344 -54.742188 32.832031 -52.925781 32.832031 -51.261719 C 32.832031 -50.628906 32.832031 -50.628906 30.851562 -46.832031 L 6.882812 -1.898438 C 4.667969 2.214844 3.402344 3.480469 1.34375 3.480469 C -1.503906 3.480469 -4.035156 2.058594 -4.035156 0.554688 C -4.035156 -0.554688 -3.796875 -1.109375 -1.742188 -4.90625 Z M 36.546875 -46.4375 C 38.527344 -50.234375 38.605469 -50.472656 38.605469 -51.261719 C 38.605469 -53.476562 35.363281 -55.695312 32.117188 -55.695312 L 27.371094 -55.695312 C 25.789062 -55.695312 24.367188 -55.0625 23.574219 -53.875 C 23.257812 -53.398438 23.257812 -53.398438 21.359375 -49.917969 L -2.609375 -5.378906 C -4.824219 -1.265625 -4.984375 -0.792969 -4.984375 0.554688 C -4.984375 2.691406 -2.136719 4.429688 1.503906 4.429688 L 6.328125 4.429688 C 8.621094 4.429688 10.207031 2.925781 12.5 -1.425781 Z M 36.546875 -46.4375 "/></g></g></g><g fill="#ffffff" fill-opacity="1"><g transform="translate(80.135739, 57.185563)"><g/></g></g><g fill="#ffffff" fill-opacity="1"><g transform="translate(100.227535, 57.185563)"><g><path d="M 3.558594 -3.402344 L 3.558594 -16.21875 L 23.574219 -26.738281 L 3.640625 -37.339844 L 3.640625 -50.078125 L 37.339844 -32.199219 L 37.339844 -21.28125 Z M 7.355469 -51.660156 L 2.609375 -51.660156 L 2.691406 -36.785156 L 21.519531 -26.738281 L 2.609375 -16.769531 L 2.609375 -1.820312 L 7.355469 -1.820312 L 43.035156 -20.648438 L 43.035156 -32.75 Z M 7.355469 -51.660156 "/></g></g></g></g></g></g><g fill="#ffffff" fill-opacity="1"><g transform="translate(70.591916, 44.980048)"><g><path d="M 1.179688 1 C 1.378906 0.941406 1.539062 0.820312 1.699219 0.699219 C 2.019531 0.441406 2.28125 0.160156 2.519531 -0.160156 C 2.800781 -0.558594 3.019531 -0.980469 3.21875 -1.398438 C 3.617188 -2.28125 3.960938 -3.199219 4.277344 -4.117188 C 4.9375 -6.058594 5.519531 -8.039062 5.917969 -10.039062 C 6.097656 -10.898438 6.257812 -11.757812 6.359375 -12.617188 C 6.378906 -12.917969 6.398438 -13.195312 6.339844 -13.496094 C 6.296875 -13.617188 6.257812 -13.714844 6.160156 -13.796875 L 5.859375 -13.996094 C 5.777344 -14.054688 5.679688 -14.054688 5.578125 -14.015625 C 5.5 -13.976562 5.398438 -13.9375 5.320312 -13.875 L 4.957031 -13.578125 C 4.5 -13.15625 4.058594 -12.695312 3.617188 -12.21875 C 2.359375 -10.835938 1.5 -9.21875 0.980469 -7.417969 C 0.839844 -6.917969 0.738281 -6.398438 0.761719 -5.859375 C 0.78125 -5.597656 0.820312 -5.339844 0.941406 -5.097656 C 1.078125 -4.777344 1.398438 -4.597656 1.71875 -4.640625 C 1.878906 -4.660156 2.019531 -4.71875 2.140625 -4.820312 C 2.179688 -4.859375 2.179688 -4.878906 2.160156 -4.917969 C 2.140625 -4.957031 2.097656 -4.957031 2.058594 -4.9375 C 1.980469 -4.898438 1.898438 -4.839844 1.820312 -4.820312 C 1.460938 -4.679688 1.28125 -4.71875 1.121094 -5.117188 C 1.039062 -5.359375 1.019531 -5.636719 1.019531 -5.9375 C 1.019531 -6.277344 1.078125 -6.636719 1.179688 -7 C 1.5 -8.199219 2.019531 -9.296875 2.699219 -10.335938 C 3.199219 -11.136719 3.820312 -11.878906 4.480469 -12.558594 C 4.820312 -12.898438 5.140625 -13.238281 5.519531 -13.515625 C 5.617188 -13.597656 5.699219 -13.675781 5.820312 -13.714844 C 5.898438 -13.738281 5.9375 -13.714844 5.957031 -13.636719 C 6 -13.355469 5.976562 -13.078125 5.9375 -12.796875 C 5.820312 -11.855469 5.636719 -10.917969 5.4375 -9.996094 C 5.078125 -8.339844 4.617188 -6.699219 4.097656 -5.058594 C 3.71875 -3.878906 3.300781 -2.699219 2.78125 -1.558594 C 2.558594 -1.058594 2.300781 -0.558594 1.960938 -0.140625 C 1.71875 0.160156 1.460938 0.417969 1.140625 0.640625 C 1 0.71875 0.859375 0.800781 0.699219 0.820312 C 0.621094 0.839844 0.558594 0.820312 0.519531 0.738281 C 0.441406 0.621094 0.398438 0.5 0.359375 0.359375 C 0.28125 0.078125 0.339844 -0.179688 0.558594 -0.378906 C 0.601562 -0.417969 0.640625 -0.460938 0.660156 -0.5 C 0.679688 -0.519531 0.679688 -0.539062 0.660156 -0.558594 C 0.621094 -0.621094 0.480469 -0.660156 0.417969 -0.621094 C 0.160156 -0.460938 -0.0195312 -0.261719 0 0.0585938 C 0.0195312 0.140625 0.0195312 0.21875 0.0390625 0.300781 C 0.101562 0.640625 0.28125 0.878906 0.621094 0.980469 C 0.820312 1.039062 1 1.058594 1.179688 1 Z M 1.179688 1 "/></g></g></g><g fill="#ffffff" fill-opacity="1"><g transform="translate(76.569554, 44.980048)"><g><path d="M -0.199219 -1.238281 C 0.078125 -1.121094 0.140625 -1.140625 0.320312 -1.339844 C 0.339844 -1.378906 0.359375 -1.398438 0.378906 -1.417969 C 1 -2.238281 1.417969 -3.121094 1.539062 -4.117188 C 1.558594 -4.257812 1.597656 -4.378906 1.679688 -4.457031 C 1.941406 -4.738281 2.160156 -5.019531 2.417969 -5.277344 C 2.78125 -5.660156 3.179688 -6.039062 3.539062 -6.417969 C 3.640625 -6.519531 3.640625 -6.558594 3.5 -6.617188 C 3.4375 -6.660156 3.398438 -6.660156 3.339844 -6.597656 L 3.257812 -6.539062 C 2.757812 -6.039062 2.238281 -5.539062 1.78125 -5 C 1.738281 -4.980469 1.71875 -4.9375 1.679688 -4.898438 C 1.679688 -4.898438 1.660156 -4.878906 1.640625 -4.878906 C 1.597656 -4.878906 1.597656 -4.917969 1.597656 -4.9375 C 1.578125 -5.117188 1.578125 -5.320312 1.539062 -5.5 C 1.5 -5.839844 1.339844 -6.078125 1.039062 -6.238281 C 0.960938 -6.257812 0.878906 -6.296875 0.820312 -6.339844 C 0.699219 -6.378906 0.640625 -6.4375 0.699219 -6.597656 C 0.71875 -6.679688 0.738281 -6.777344 0.78125 -6.859375 C 0.960938 -7.238281 1.179688 -7.597656 1.5 -7.859375 C 1.519531 -7.878906 1.539062 -7.917969 1.539062 -7.9375 C 1.539062 -7.976562 1.480469 -7.976562 1.460938 -7.996094 C 1.398438 -7.996094 1.359375 -7.976562 1.320312 -7.957031 C 1.238281 -7.898438 1.160156 -7.859375 1.078125 -7.777344 C 0.800781 -7.519531 0.601562 -7.179688 0.441406 -6.816406 L 0.417969 -6.679688 C 0.378906 -6.558594 0.417969 -6.4375 0.539062 -6.378906 C 0.640625 -6.320312 0.761719 -6.257812 0.859375 -6.238281 C 1.019531 -6.179688 1.121094 -6.058594 1.179688 -5.917969 C 1.257812 -5.777344 1.28125 -5.636719 1.300781 -5.5 C 1.320312 -5.199219 1.300781 -4.898438 1.28125 -4.597656 C 1.257812 -4.4375 1.199219 -4.300781 1.101562 -4.160156 C 0.71875 -3.660156 0.398438 -3.140625 0.101562 -2.597656 C -0.0390625 -2.300781 -0.179688 -2 -0.261719 -1.679688 C -0.300781 -1.578125 -0.300781 -1.5 -0.300781 -1.398438 C -0.300781 -1.320312 -0.261719 -1.28125 -0.199219 -1.238281 Z M 0.0585938 -1.660156 C 0.0195312 -1.699219 0.0390625 -1.738281 0.0585938 -1.78125 C 0.121094 -1.917969 0.160156 -2.058594 0.21875 -2.199219 C 0.417969 -2.640625 0.660156 -3.039062 0.917969 -3.4375 C 0.941406 -3.460938 0.960938 -3.519531 1.039062 -3.519531 C 0.980469 -3.21875 0.839844 -2.960938 0.71875 -2.699219 C 0.5 -2.238281 0.238281 -1.839844 0.0585938 -1.660156 Z M 0.0585938 -1.660156 "/></g></g></g><g fill="#ffffff" fill-opacity="1"><g transform="translate(79.588368, 44.980048)"><g><path d="M 4.238281 2.5 C 4.660156 2.621094 4.71875 2.640625 5.097656 2.359375 C 5.140625 2.339844 5.160156 2.300781 5.199219 2.28125 C 5.578125 1.941406 5.898438 1.519531 6.160156 1.101562 C 6.71875 0.21875 7.199219 -0.699219 7.679688 -1.621094 C 7.996094 -2.21875 8.277344 -2.820312 8.558594 -3.4375 C 8.679688 -3.679688 8.636719 -3.660156 8.898438 -3.640625 C 9.296875 -3.617188 9.699219 -3.679688 10.078125 -3.800781 C 10.917969 -4.058594 11.695312 -4.4375 12.4375 -4.917969 C 13.117188 -5.378906 13.695312 -5.957031 14.277344 -6.539062 C 14.375 -6.617188 14.335938 -6.699219 14.214844 -6.738281 C 14.15625 -6.757812 14.097656 -6.71875 14.054688 -6.679688 L 13.277344 -6 C 12.917969 -5.679688 12.535156 -5.359375 12.136719 -5.097656 C 11.515625 -4.71875 10.855469 -4.417969 10.175781 -4.160156 C 9.816406 -4.019531 9.457031 -3.9375 9.078125 -3.878906 C 8.976562 -3.859375 8.878906 -3.820312 8.816406 -3.878906 C 8.738281 -3.960938 8.835938 -4.039062 8.859375 -4.117188 C 8.878906 -4.199219 8.917969 -4.257812 8.9375 -4.339844 C 9.476562 -5.519531 9.976562 -6.738281 10.4375 -7.957031 C 10.777344 -8.835938 11.097656 -9.71875 11.355469 -10.617188 C 11.476562 -11.058594 11.578125 -11.496094 11.636719 -11.9375 C 11.65625 -12.15625 11.65625 -12.355469 11.597656 -12.558594 C 11.558594 -12.65625 11.515625 -12.757812 11.4375 -12.816406 C 11.117188 -13.058594 10.777344 -13.15625 10.398438 -12.976562 L 10.175781 -12.855469 C 9.976562 -12.738281 9.816406 -12.597656 9.636719 -12.4375 C 9.257812 -12.058594 8.9375 -11.636719 8.65625 -11.195312 C 8.039062 -10.238281 7.617188 -9.175781 7.359375 -8.078125 C 7.160156 -7.257812 7.039062 -6.4375 7.078125 -5.617188 C 7.097656 -5.257812 7.179688 -4.917969 7.339844 -4.578125 C 7.476562 -4.257812 7.71875 -4.019531 8.058594 -3.878906 C 8.417969 -3.71875 8.378906 -3.777344 8.21875 -3.4375 C 7.617188 -2.078125 6.898438 -0.761719 6.160156 0.519531 C 5.976562 0.820312 5.777344 1.121094 5.558594 1.398438 C 5.359375 1.679688 5.117188 1.960938 4.839844 2.179688 C 4.757812 2.238281 4.660156 2.300781 4.558594 2.359375 C 4.5 2.398438 4.4375 2.378906 4.417969 2.300781 C 4.339844 2.078125 4.300781 1.878906 4.300781 1.660156 C 4.257812 1.257812 4.257812 0.859375 4.277344 0.460938 C 4.300781 -0.460938 4.4375 -1.378906 4.578125 -2.28125 C 4.757812 -3.378906 5.019531 -4.457031 5.238281 -5.539062 C 5.480469 -6.597656 5.71875 -7.65625 5.898438 -8.738281 C 6.019531 -9.398438 6.136719 -10.058594 6.179688 -10.738281 C 6.199219 -10.9375 6.179688 -11.136719 6.136719 -11.335938 C 6.117188 -11.457031 6.078125 -11.597656 6 -11.71875 C 5.839844 -11.957031 5.296875 -12.15625 5 -12.078125 C 4.839844 -12.015625 4.699219 -11.957031 4.558594 -11.878906 C 4.378906 -11.757812 4.199219 -11.636719 4.019531 -11.496094 C 3 -10.675781 2.140625 -9.738281 1.417969 -8.65625 C 0.738281 -7.65625 0.261719 -6.578125 0.078125 -5.378906 C 0.0195312 -5.019531 -0.0195312 -4.660156 0 -4.300781 C 0.0390625 -3.898438 0.121094 -3.539062 0.300781 -3.199219 C 0.621094 -2.640625 1.28125 -2.539062 1.699219 -2.757812 C 2.039062 -2.917969 2.320312 -3.140625 2.558594 -3.4375 L 2.621094 -3.5 C 2.660156 -3.578125 2.660156 -3.640625 2.621094 -3.660156 C 2.558594 -3.679688 2.539062 -3.640625 2.5 -3.617188 C 2.398438 -3.5 2.28125 -3.378906 2.179688 -3.277344 C 1.941406 -3.078125 1.679688 -2.917969 1.378906 -2.820312 C 0.960938 -2.679688 0.839844 -2.78125 0.640625 -3.078125 C 0.460938 -3.359375 0.378906 -3.679688 0.359375 -4.019531 C 0.320312 -4.597656 0.417969 -5.179688 0.558594 -5.757812 C 0.761719 -6.539062 1.121094 -7.257812 1.519531 -7.957031 C 1.980469 -8.738281 2.539062 -9.457031 3.179688 -10.117188 C 3.640625 -10.597656 4.140625 -11.058594 4.699219 -11.4375 C 4.859375 -11.539062 5.019531 -11.636719 5.199219 -11.71875 C 5.519531 -11.855469 5.539062 -11.855469 5.617188 -11.496094 C 5.660156 -11.257812 5.660156 -11.039062 5.636719 -10.796875 C 5.597656 -10.378906 5.558594 -9.957031 5.480469 -9.558594 C 5.359375 -8.679688 5.179688 -7.839844 5 -6.976562 C 4.660156 -5.378906 4.320312 -3.777344 4.058594 -2.160156 C 3.917969 -1.257812 3.800781 -0.339844 3.800781 0.398438 C 3.800781 0.980469 3.800781 1.398438 3.859375 1.800781 C 3.898438 1.960938 3.917969 2.121094 3.980469 2.28125 C 4.039062 2.378906 4.097656 2.480469 4.238281 2.5 Z M 8.316406 -3.898438 C 8.257812 -3.917969 8.199219 -3.960938 8.136719 -4 C 7.996094 -4.097656 7.878906 -4.257812 7.777344 -4.417969 C 7.636719 -4.71875 7.558594 -5.039062 7.519531 -5.359375 C 7.5 -5.539062 7.5 -5.71875 7.5 -5.820312 C 7.519531 -6.660156 7.65625 -7.398438 7.839844 -8.136719 C 8.097656 -9.238281 8.539062 -10.238281 9.15625 -11.175781 C 9.4375 -11.597656 9.757812 -11.996094 10.136719 -12.335938 C 10.277344 -12.457031 10.417969 -12.578125 10.578125 -12.65625 C 10.71875 -12.757812 10.855469 -12.816406 11.015625 -12.835938 C 11.136719 -12.855469 11.175781 -12.835938 11.238281 -12.71875 C 11.296875 -12.535156 11.296875 -12.375 11.296875 -12.195312 C 11.296875 -11.855469 11.21875 -11.539062 11.136719 -11.195312 C 10.9375 -10.296875 10.636719 -9.417969 10.335938 -8.558594 C 9.917969 -7.398438 9.457031 -6.257812 8.976562 -5.140625 L 8.539062 -4.160156 C 8.519531 -4.097656 8.476562 -4.039062 8.457031 -3.960938 C 8.417969 -3.898438 8.378906 -3.898438 8.316406 -3.898438 Z M 8.316406 -3.898438 "/></g></g></g><g fill="#ffffff" fill-opacity="1"><g transform="translate(93.322948, 44.980048)"><g><path d="M 1.257812 -8.296875 C 1.300781 -8.296875 1.378906 -8.339844 1.398438 -8.4375 C 1.417969 -8.476562 1.417969 -8.519531 1.398438 -8.558594 C 1.359375 -8.636719 1.378906 -8.699219 1.441406 -8.757812 C 1.441406 -8.777344 1.441406 -8.796875 1.460938 -8.816406 C 1.441406 -8.835938 1.417969 -8.859375 1.398438 -8.859375 C 1.339844 -8.878906 1.28125 -8.859375 1.257812 -8.816406 C 1.179688 -8.71875 1.140625 -8.617188 1.101562 -8.496094 C 1.101562 -8.417969 1.160156 -8.339844 1.257812 -8.296875 Z M 1.078125 -4.878906 C 1.257812 -4.9375 1.441406 -5.039062 1.597656 -5.140625 C 2.257812 -5.539062 2.859375 -6.019531 3.460938 -6.519531 L 3.539062 -6.597656 C 3.558594 -6.617188 3.539062 -6.660156 3.519531 -6.660156 C 3.378906 -6.777344 3.339844 -6.777344 3.238281 -6.679688 C 3.199219 -6.660156 3.160156 -6.617188 3.140625 -6.597656 C 2.679688 -6.238281 2.238281 -5.878906 1.78125 -5.539062 C 1.539062 -5.378906 1.300781 -5.238281 1.058594 -5.097656 C 0.941406 -5.058594 0.820312 -5 0.699219 -5 C 0.621094 -5 0.578125 -5.019531 0.539062 -5.097656 C 0.5 -5.238281 0.5 -5.378906 0.519531 -5.519531 C 0.578125 -6.078125 0.640625 -6.636719 0.960938 -7.136719 C 0.980469 -7.160156 0.960938 -7.199219 0.960938 -7.21875 C 0.917969 -7.277344 0.800781 -7.316406 0.761719 -7.257812 C 0.699219 -7.199219 0.660156 -7.136719 0.621094 -7.078125 C 0.378906 -6.597656 0.238281 -6.078125 0.199219 -5.539062 L 0.238281 -5.257812 C 0.261719 -5.117188 0.320312 -5.019531 0.460938 -4.9375 C 0.660156 -4.839844 0.859375 -4.796875 1.078125 -4.878906 Z M 1.078125 -4.878906 "/></g></g></g><g fill="#ffffff" fill-opacity="1"><g transform="translate(96.261791, 44.980048)"><g><path d="M 2.460938 1.019531 C 2.519531 1.039062 2.578125 1.019531 2.597656 0.960938 C 2.640625 0.839844 2.699219 0.71875 2.738281 0.601562 L 3.21875 -0.898438 C 3.359375 -1.359375 3.519531 -1.820312 3.660156 -2.28125 C 3.71875 -2.460938 3.800781 -2.558594 4 -2.640625 C 4.160156 -2.679688 4.300781 -2.78125 4.457031 -2.859375 C 5.539062 -3.4375 6.539062 -4.117188 7.5 -4.878906 C 8.398438 -5.597656 9.238281 -6.398438 10.058594 -7.199219 C 11.097656 -8.21875 11.957031 -9.378906 12.675781 -10.636719 C 12.957031 -11.136719 13.214844 -11.675781 13.355469 -12.238281 C 13.4375 -12.496094 13.476562 -12.757812 13.457031 -13.015625 C 13.457031 -13.335938 13.316406 -13.617188 13.058594 -13.816406 C 12.976562 -13.898438 12.898438 -13.957031 12.796875 -14.015625 C 12.675781 -14.117188 12.535156 -14.15625 12.375 -14.175781 C 12.15625 -14.214844 11.917969 -14.195312 11.695312 -14.136719 C 11.316406 -14.054688 10.976562 -13.898438 10.65625 -13.695312 C 10.15625 -13.417969 9.71875 -13.035156 9.316406 -12.617188 C 8.457031 -11.738281 7.679688 -10.777344 6.976562 -9.738281 C 5.859375 -8.078125 4.957031 -6.296875 4.199219 -4.457031 C 4 -3.980469 3.820312 -3.480469 3.640625 -3 C 3.597656 -2.898438 3.519531 -2.820312 3.417969 -2.78125 C 3.378906 -2.78125 3.339844 -2.757812 3.320312 -2.738281 C 3.199219 -2.71875 3.097656 -2.621094 2.980469 -2.679688 C 2.960938 -2.78125 3 -2.878906 3 -3 L 3.019531 -3.019531 C 3.140625 -3.578125 3.277344 -4.140625 3.417969 -4.679688 C 3.738281 -5.9375 4.117188 -7.179688 4.5 -8.398438 C 4.839844 -9.4375 5.160156 -10.476562 5.417969 -11.539062 C 5.617188 -12.277344 5.796875 -13.035156 5.917969 -13.796875 C 5.957031 -14.136719 5.976562 -14.496094 5.9375 -14.835938 C 5.917969 -15.175781 5.777344 -15.457031 5.457031 -15.617188 L 5.320312 -15.695312 C 5.078125 -15.875 4.820312 -15.875 4.539062 -15.777344 C 4.417969 -15.734375 4.277344 -15.675781 4.160156 -15.617188 C 3.960938 -15.515625 3.777344 -15.375 3.597656 -15.234375 C 3.039062 -14.777344 2.558594 -14.238281 2.121094 -13.65625 C 1.5 -12.816406 1.019531 -11.917969 0.640625 -10.957031 C 0.339844 -10.21875 0.101562 -9.457031 0.0390625 -8.65625 C -0.0195312 -8.058594 -0.0195312 -7.476562 0.121094 -6.898438 C 0.160156 -6.679688 0.21875 -6.476562 0.320312 -6.296875 C 0.417969 -6.097656 0.539062 -5.898438 0.71875 -5.757812 C 0.78125 -5.738281 0.820312 -5.71875 0.878906 -5.738281 C 0.660156 -5.917969 0.519531 -6.160156 0.441406 -6.417969 C 0.339844 -6.738281 0.28125 -7.058594 0.261719 -7.378906 C 0.21875 -8.257812 0.339844 -9.117188 0.621094 -9.957031 C 1.078125 -11.238281 1.71875 -12.4375 2.539062 -13.515625 C 2.960938 -14.054688 3.417969 -14.554688 3.960938 -14.976562 C 4.199219 -15.15625 4.457031 -15.335938 4.738281 -15.4375 C 4.878906 -15.496094 5.019531 -15.554688 5.179688 -15.554688 C 5.277344 -15.554688 5.359375 -15.515625 5.398438 -15.417969 C 5.457031 -15.234375 5.5 -15.054688 5.5 -14.875 C 5.519531 -14.578125 5.480469 -14.257812 5.4375 -13.957031 C 5.359375 -13.4375 5.238281 -12.898438 5.097656 -12.375 C 4.859375 -11.335938 4.539062 -10.316406 4.238281 -9.296875 C 3.960938 -8.378906 3.660156 -7.476562 3.378906 -6.558594 C 3 -5.257812 2.660156 -3.980469 2.417969 -2.640625 C 2.378906 -2.5 2.359375 -2.480469 2.238281 -2.460938 C 1.917969 -2.398438 1.597656 -2.378906 1.28125 -2.398438 C 1.199219 -2.398438 1.101562 -2.417969 1.019531 -2.4375 C 0.941406 -2.460938 0.878906 -2.5 0.839844 -2.558594 C 0.601562 -2.859375 0.601562 -3.300781 0.839844 -3.597656 L 1.101562 -3.839844 C 1.160156 -3.878906 1.199219 -3.917969 1.238281 -3.960938 C 1.257812 -3.980469 1.28125 -4 1.238281 -4.039062 C 1.179688 -4.078125 1.101562 -4.140625 1.019531 -4.078125 C 0.78125 -3.9375 0.558594 -3.777344 0.417969 -3.539062 C 0.261719 -3.277344 0.28125 -2.757812 0.601562 -2.539062 C 0.878906 -2.359375 1.160156 -2.21875 1.480469 -2.179688 C 1.71875 -2.140625 1.960938 -2.140625 2.199219 -2.160156 C 2.300781 -2.179688 2.320312 -2.140625 2.320312 -2.039062 C 2.28125 -1.738281 2.238281 -1.441406 2.21875 -1.140625 C 2.140625 -0.578125 2.121094 0.0195312 2.097656 0.601562 C 2.097656 0.960938 2.097656 0.898438 2.460938 1.019531 Z M 4 -3.058594 C 3.960938 -3.140625 4 -3.199219 4.039062 -3.257812 C 4.539062 -4.617188 5.117188 -5.9375 5.796875 -7.21875 C 6.398438 -8.339844 7.058594 -9.398438 7.839844 -10.398438 C 8.398438 -11.15625 8.996094 -11.855469 9.675781 -12.515625 C 9.957031 -12.796875 10.238281 -13.035156 10.558594 -13.257812 C 10.957031 -13.535156 11.398438 -13.757812 11.878906 -13.875 C 12.136719 -13.957031 12.398438 -13.976562 12.65625 -13.917969 C 12.835938 -13.875 12.957031 -13.796875 13.015625 -13.617188 C 13.078125 -13.4375 13.097656 -13.257812 13.078125 -13.058594 C 13.035156 -12.738281 12.957031 -12.417969 12.835938 -12.117188 C 12.65625 -11.636719 12.417969 -11.175781 12.15625 -10.738281 C 11.757812 -10.039062 11.296875 -9.335938 10.796875 -8.71875 C 10.355469 -8.179688 9.859375 -7.679688 9.378906 -7.199219 C 8.578125 -6.398438 7.757812 -5.660156 6.878906 -4.957031 C 6.136719 -4.378906 5.378906 -3.839844 4.578125 -3.359375 C 4.417969 -3.277344 4.277344 -3.199219 4.117188 -3.097656 C 4.078125 -3.078125 4.039062 -3.078125 4 -3.058594 Z M 2.699219 -0.398438 C 2.640625 -0.398438 2.660156 -0.460938 2.660156 -0.5 C 2.679688 -0.699219 2.699219 -0.917969 2.71875 -1.121094 L 2.839844 -2.078125 C 2.859375 -2.21875 2.917969 -2.28125 3.039062 -2.300781 C 3.160156 -2.320312 3.238281 -2.378906 3.359375 -2.359375 C 3.320312 -2.160156 2.800781 -0.578125 2.699219 -0.398438 Z M 2.699219 -0.398438 "/></g></g></g><g fill="#ffffff" fill-opacity="1"><g transform="translate(107.717268, 44.980048)"><g><path d="M 0.699219 -4.738281 C 0.78125 -4.71875 0.859375 -4.71875 0.941406 -4.738281 C 1.257812 -4.777344 1.519531 -4.898438 1.78125 -5.058594 C 2.28125 -5.339844 3.300781 -6.117188 3.738281 -6.5 C 3.777344 -6.539062 3.839844 -6.558594 3.898438 -6.617188 C 3.660156 -6.796875 3.660156 -6.796875 3.480469 -6.660156 L 3.320312 -6.539062 C 3 -6.277344 2.097656 -5.597656 1.738281 -5.378906 C 1.539062 -5.257812 1.359375 -5.160156 1.160156 -5.078125 C 1 -5.019531 0.839844 -5 0.679688 -4.980469 C 0.480469 -4.9375 0.398438 -5 0.378906 -5.199219 C 0.359375 -5.480469 0.378906 -5.757812 0.460938 -6.019531 C 0.5 -6.097656 0.539062 -6.179688 0.621094 -6.238281 C 0.78125 -6.359375 0.960938 -6.476562 1.121094 -6.617188 C 1.441406 -6.898438 1.738281 -7.21875 1.980469 -7.578125 C 2.078125 -7.738281 2.179688 -7.898438 2.21875 -8.078125 C 2.238281 -8.136719 2.238281 -8.179688 2.21875 -8.238281 C 2.160156 -8.417969 1.878906 -8.558594 1.699219 -8.476562 C 1.640625 -8.457031 1.578125 -8.417969 1.519531 -8.359375 C 1.378906 -8.277344 1.257812 -8.136719 1.140625 -8.019531 C 0.839844 -7.679688 0.601562 -7.277344 0.398438 -6.878906 C 0.261719 -6.597656 0.140625 -6.320312 0.0585938 -6.019531 C 0 -5.796875 -0.0195312 -5.597656 0.0195312 -5.378906 C 0.0195312 -5.257812 0.0585938 -5.140625 0.140625 -5.058594 C 0.320312 -4.898438 0.480469 -4.777344 0.699219 -4.738281 Z M 0.71875 -6.597656 C 0.699219 -6.617188 0.699219 -6.636719 0.71875 -6.679688 C 0.941406 -7.160156 1.21875 -7.617188 1.578125 -8.019531 C 1.679688 -8.117188 1.78125 -8.21875 1.917969 -8.277344 C 1.960938 -8.296875 2 -8.277344 2 -8.21875 C 2 -8.117188 1.960938 -8.019531 1.898438 -7.917969 C 1.78125 -7.679688 1.621094 -7.476562 1.460938 -7.277344 C 1.257812 -7.039062 1.039062 -6.839844 0.820312 -6.636719 C 0.800781 -6.617188 0.78125 -6.578125 0.71875 -6.597656 Z M 0.71875 -6.597656 "/></g></g></g></svg>
