<svg xmlns="http://www.w3.org/2000/svg" xmlns:xlink="http://www.w3.org/1999/xlink" width="200" zoomAndPan="magnify" viewBox="0 0 150 37.5" height="50" preserveAspectRatio="xMidYMid meet" version="1.0"><defs><filter x="0%" y="0%" width="100%" height="100%" id="f8af79354b"><feColorMatrix values="0 0 0 0 1 0 0 0 0 1 0 0 0 0 1 0 0 0 1 0" color-interpolation-filters="sRGB"/></filter><g/><clipPath id="13c03dc6d0"><path d="M 0.988281 0 L 148 0 L 148 37.007812 L 0.988281 37.007812 Z M 0.988281 0 " clip-rule="nonzero"/></clipPath><mask id="784f4cf432"><g filter="url(#f8af79354b)"><rect x="-15" width="180" fill="#000000" y="-3.75" height="45" fill-opacity="0.9176"/></g></mask><clipPath id="e949a237b4"><path d="M 23 0.238281 L 48 0.238281 L 48 34 L 23 34 Z M 23 0.238281 " clip-rule="nonzero"/></clipPath><clipPath id="11942ff7b5"><rect x="0" width="148" y="0" height="38"/></clipPath><mask id="0c8cf01fd5"><g filter="url(#f8af79354b)"><rect x="-15" width="180" fill="#000000" y="-3.75" height="45" fill-opacity="0.9176"/></g></mask><clipPath id="7d1906b671"><rect x="0" width="65" y="0" height="28"/></clipPath></defs><g clip-path="url(#13c03dc6d0)"><g mask="url(#784f4cf432)"><g transform="matrix(1, 0, 0, 1, 0.000000000000000222, -0.000000000000001471)"><g clip-path="url(#11942ff7b5)"><g fill="#ffffff" fill-opacity="1"><g transform="translate(0.986842, 31.48263)"><g><path d="M 20.445312 -27.417969 L 20.445312 -20.402344 L 9.484375 -14.597656 L 20.402344 -8.792969 L 20.402344 -1.863281 L 1.949219 -11.652344 L 1.949219 -17.628906 Z M 23.5625 -28.242188 L 20.921875 -28.242188 L 1.429688 -17.933594 L 1.429688 -11.347656 L 20.921875 -0.996094 L 23.519531 -0.996094 L 23.519531 -9.097656 L 13.210938 -14.597656 L 23.5625 -20.054688 Z M 23.5625 -28.242188 "/></g></g></g><g clip-path="url(#e949a237b4)"><g fill="#ffffff" fill-opacity="1"><g transform="translate(25.975518, 31.48263)"><g><path d="M 12.128906 -27.070312 C 13.167969 -28.933594 13.210938 -28.976562 13.339844 -29.195312 C 13.6875 -29.714844 14.292969 -29.972656 14.988281 -29.972656 C 16.371094 -29.972656 17.976562 -28.976562 17.976562 -28.066406 C 17.976562 -27.722656 17.976562 -27.722656 16.894531 -25.640625 L 3.769531 -1.039062 C 2.554688 1.210938 1.863281 1.90625 0.738281 1.90625 C -0.824219 1.90625 -2.210938 1.125 -2.210938 0.304688 C -2.210938 -0.304688 -2.078125 -0.605469 -0.953125 -2.683594 Z M 20.011719 -25.425781 C 21.09375 -27.503906 21.136719 -27.632812 21.136719 -28.066406 C 21.136719 -29.28125 19.363281 -30.492188 17.585938 -30.492188 L 14.988281 -30.492188 C 14.121094 -30.492188 13.339844 -30.148438 12.90625 -29.496094 C 12.734375 -29.238281 12.734375 -29.238281 11.695312 -27.332031 L -1.429688 -2.945312 C -2.640625 -0.691406 -2.730469 -0.433594 -2.730469 0.304688 C -2.730469 1.472656 -1.167969 2.425781 0.824219 2.425781 L 3.464844 2.425781 C 4.722656 2.425781 5.585938 1.601562 6.84375 -0.78125 Z M 20.011719 -25.425781 "/></g></g></g></g><g fill="#ffffff" fill-opacity="1"><g transform="translate(44.416492, 31.48263)"><g/></g></g><g fill="#ffffff" fill-opacity="1"><g transform="translate(55.416702, 31.48263)"><g/></g></g><g fill="#ffffff" fill-opacity="1"><g transform="translate(66.416913, 31.48263)"><g/></g></g><g fill="#ffffff" fill-opacity="1"><g transform="translate(77.417124, 31.48263)"><g/></g></g><g fill="#ffffff" fill-opacity="1"><g transform="translate(88.417334, 31.48263)"><g/></g></g><g fill="#ffffff" fill-opacity="1"><g transform="translate(99.417545, 31.48263)"><g/></g></g><g fill="#ffffff" fill-opacity="1"><g transform="translate(110.417755, 31.48263)"><g/></g></g><g fill="#ffffff" fill-opacity="1"><g transform="translate(121.408489, 31.48263)"><g><path d="M 1.949219 -1.863281 L 1.949219 -8.878906 L 12.90625 -14.640625 L 1.992188 -20.445312 L 1.992188 -27.417969 L 20.445312 -17.628906 L 20.445312 -11.652344 Z M 4.027344 -28.285156 L 1.429688 -28.285156 L 1.472656 -20.140625 L 11.78125 -14.640625 L 1.429688 -9.183594 L 1.429688 -0.996094 L 4.027344 -0.996094 L 23.5625 -11.304688 L 23.5625 -17.933594 Z M 4.027344 -28.285156 "/></g></g></g></g></g></g></g><g mask="url(#0c8cf01fd5)"><g transform="matrix(1, 0, 0, 1, 47, 1)"><g clip-path="url(#7d1906b671)"><g fill="#ffffff" fill-opacity="1"><g transform="translate(1.766238, 24.426127)"><g><path d="M 6.203125 -15.660156 C 7.242188 -15.660156 8.09375 -16.511719 8.09375 -17.574219 C 8.09375 -18.613281 7.242188 -19.441406 6.203125 -19.441406 C 5.167969 -19.441406 4.3125 -18.613281 4.3125 -17.574219 C 4.3125 -16.511719 5.167969 -15.660156 6.203125 -15.660156 Z M 3.089844 -3.898438 L 5.628906 -11.140625 C 5.71875 -11.4375 5.835938 -11.761719 5.835938 -11.992188 C 5.835938 -13.007812 5.074219 -13.539062 4.289062 -13.539062 C 3.574219 -13.539062 2.8125 -13.03125 2.445312 -11.945312 C 1.707031 -9.777344 0.738281 -7.035156 0 -4.890625 C -0.136719 -4.429688 -0.324219 -3.804688 -0.324219 -3.414062 C -0.324219 -1.246094 1.476562 0 3.597656 0 C 5.859375 0 8.347656 -1.382812 9.964844 -6.15625 C 10.007812 -6.296875 10.03125 -6.433594 10.03125 -6.574219 C 10.03125 -7.289062 9.339844 -7.726562 8.648438 -7.726562 C 8.027344 -7.726562 7.402344 -7.402344 7.125 -6.6875 C 6.042969 -3.691406 4.820312 -2.746094 3.898438 -2.746094 C 3.367188 -2.746094 3.019531 -3.089844 3.019531 -3.527344 C 3.019531 -3.644531 3.042969 -3.757812 3.089844 -3.898438 Z M 3.089844 -3.898438 "/></g></g></g><g fill="#ffffff" fill-opacity="1"><g transform="translate(8.130709, 24.426127)"><g><path d="M 12.246094 -6.527344 C 11.691406 -5.167969 10.886719 -4.21875 9.824219 -3.597656 C 9.871094 -3.898438 9.917969 -4.175781 9.917969 -4.472656 C 9.917969 -5.8125 9.203125 -7.082031 8.554688 -8.164062 C 8.09375 -8.949219 7.632812 -9.734375 7.542969 -10.449219 C 8.1875 -10.722656 8.695312 -11.460938 8.695312 -12.152344 C 8.695312 -13.144531 7.933594 -14.070312 6.78125 -14.070312 C 5.902344 -14.070312 5.027344 -13.628906 4.589844 -12.730469 C 3.691406 -10.976562 2.722656 -9.203125 1.800781 -7.472656 C 0.253906 -7.082031 -0.507812 -5.328125 -0.507812 -3.851562 C -0.507812 -1.589844 1.753906 0.160156 5.835938 0.160156 C 9.847656 0.160156 13.445312 -1.359375 15.058594 -6.019531 C 15.105469 -6.113281 15.105469 -6.226562 15.105469 -6.320312 C 15.105469 -6.988281 14.34375 -7.472656 13.605469 -7.472656 C 13.054688 -7.472656 12.5 -7.195312 12.246094 -6.527344 Z M 4.933594 -7.148438 L 5.144531 -7.585938 C 5.835938 -6.757812 6.386719 -5.652344 6.386719 -4.566406 C 6.386719 -3.484375 5.8125 -2.582031 4.589844 -2.535156 C 3.804688 -2.535156 3.113281 -2.882812 2.859375 -3.484375 C 3.042969 -3.4375 3.230469 -3.4375 3.390625 -3.4375 C 4.726562 -3.4375 5.511719 -4.566406 5.511719 -5.695312 C 5.511719 -6.226562 5.328125 -6.757812 4.933594 -7.148438 Z M 4.933594 -7.148438 "/></g></g></g><g fill="#ffffff" fill-opacity="1"><g transform="translate(19.637485, 24.426127)"><g><path d="M 11.691406 -6.6875 C 10.816406 -4.429688 9.640625 -2.746094 8.671875 -2.746094 C 8.347656 -2.746094 8.1875 -3.042969 8.1875 -3.367188 C 8.1875 -3.503906 8.210938 -3.691406 8.28125 -3.875 L 9.640625 -7.65625 C 9.777344 -8.117188 9.871094 -8.535156 9.871094 -8.925781 C 9.871094 -11.117188 7.101562 -12.039062 5.8125 -12.429688 C 5.882812 -12.617188 5.902344 -12.824219 5.902344 -13.007812 C 5.902344 -14.070312 4.957031 -14.96875 3.921875 -14.96875 C 2.558594 -14.96875 1.753906 -13.769531 1.753906 -12.453125 C 1.753906 -11.878906 1.960938 -11.277344 2.328125 -10.816406 L 0.644531 -6.273438 C 0.601562 -6.089844 0.578125 -5.902344 0.578125 -5.765625 C 0.578125 -5.003906 1.175781 -4.613281 1.820312 -4.613281 C 2.46875 -4.613281 3.136719 -4.980469 3.414062 -5.71875 L 4.703125 -9.179688 C 5.351562 -8.972656 6.203125 -8.808594 6.203125 -8.027344 C 6.203125 -7.910156 6.179688 -7.773438 6.132812 -7.609375 L 5.121094 -4.796875 C 4.933594 -4.265625 4.84375 -3.78125 4.84375 -3.320312 C 4.84375 -1.316406 6.433594 0 8.347656 0 C 10.863281 0 13.144531 -2.238281 14.507812 -6.132812 C 14.554688 -6.273438 14.574219 -6.386719 14.574219 -6.503906 C 14.574219 -7.195312 13.816406 -7.65625 13.078125 -7.65625 C 12.476562 -7.65625 11.902344 -7.378906 11.691406 -6.6875 Z M 11.691406 -6.6875 "/></g></g></g><g fill="#ffffff" fill-opacity="1"><g transform="translate(30.544701, 24.426127)"><g><path d="M 14.460938 -7.796875 C 13.816406 -7.796875 13.101562 -7.402344 12.824219 -6.527344 C 11.921875 -3.691406 10.46875 -2.746094 9.433594 -2.746094 C 9.039062 -2.746094 8.808594 -2.953125 8.808594 -3.320312 C 8.808594 -3.503906 8.855469 -3.734375 8.925781 -3.988281 L 11.507812 -11.460938 C 11.601562 -11.738281 11.648438 -11.992188 11.648438 -12.222656 C 11.648438 -13.238281 10.816406 -13.769531 9.964844 -13.769531 C 9.316406 -13.769531 8.648438 -13.46875 8.28125 -12.890625 C 7.796875 -13.191406 6.894531 -13.539062 5.71875 -13.539062 C 4.199219 -13.539062 2.535156 -12.707031 1.914062 -10.933594 L -0.253906 -4.726562 C -0.390625 -4.3125 -0.484375 -3.898438 -0.484375 -3.484375 C -0.484375 -1.566406 1.0625 0 3.089844 0 C 4.175781 0 5.28125 -0.484375 6.132812 -1.246094 C 6.871094 -0.183594 8.511719 0 9.203125 0 C 11.117188 0 13.675781 -0.96875 15.152344 -4.703125 C 15.476562 -5.605469 15.730469 -6.179688 15.730469 -6.597656 C 15.730469 -7.378906 15.128906 -7.796875 14.460938 -7.796875 Z M 6.851562 -8.027344 L 5.742188 -4.589844 C 5.257812 -3.089844 4.382812 -2.746094 3.898438 -2.746094 C 3.390625 -2.746094 3.136719 -3.066406 3.136719 -3.597656 C 3.136719 -3.898438 3.207031 -4.175781 3.273438 -4.382812 L 4.75 -9.019531 C 5.1875 -10.425781 5.835938 -10.609375 6.203125 -10.609375 C 6.640625 -10.609375 7.125 -10.171875 7.125 -9.386719 C 7.125 -9.039062 7.035156 -8.601562 6.851562 -8.027344 Z M 6.851562 -8.027344 "/></g></g></g><g fill="#ffffff" fill-opacity="1"><g transform="translate(42.651023, 24.426127)"><g><path d="M 11.667969 -6.503906 C 10.65625 -3.828125 8.234375 -2.746094 6.273438 -2.746094 C 4.589844 -2.746094 3.527344 -3.550781 3.527344 -4.613281 C 3.527344 -4.820312 3.550781 -5.027344 3.644531 -5.257812 L 3.828125 -5.695312 C 4.496094 -5.28125 5.328125 -5.003906 6.25 -5.003906 C 8.347656 -5.003906 10.195312 -6.320312 10.816406 -8.394531 C 10.933594 -8.832031 11 -9.269531 11 -9.664062 C 11 -11.855469 9.269531 -13.539062 6.664062 -13.539062 C 4.613281 -13.539062 2.605469 -12.339844 1.800781 -10.03125 L 0.4375 -6.089844 C 0.253906 -5.535156 0.136719 -4.980469 0.136719 -4.449219 C 0.136719 -1.707031 2.722656 0 6.089844 0 C 9.292969 0 12.9375 -1.566406 14.460938 -5.972656 C 14.53125 -6.15625 14.554688 -6.320312 14.554688 -6.457031 C 14.554688 -7.171875 13.90625 -7.566406 13.214844 -7.566406 C 12.570312 -7.566406 11.878906 -7.21875 11.667969 -6.503906 Z M 6.597656 -10.816406 C 7.242188 -10.816406 7.65625 -10.285156 7.65625 -9.617188 C 7.65625 -9.433594 7.632812 -9.25 7.566406 -9.0625 C 7.335938 -8.300781 6.640625 -8.027344 5.949219 -8.027344 C 5.511719 -8.027344 5.074219 -8.117188 4.75 -8.300781 L 5.234375 -9.6875 C 5.488281 -10.402344 6.066406 -10.816406 6.597656 -10.816406 Z M 6.597656 -10.816406 "/></g></g></g><g fill="#ffffff" fill-opacity="1"><g transform="translate(53.5813, 24.426127)"><g><path d="M 3.160156 -3.757812 L 8.003906 -17.78125 C 8.09375 -18.058594 8.140625 -18.335938 8.140625 -18.566406 C 8.140625 -19.441406 7.3125 -20.019531 6.617188 -20.019531 C 5.742188 -20.019531 5.167969 -19.535156 4.796875 -18.496094 L 0 -4.796875 C -0.183594 -4.265625 -0.277344 -3.78125 -0.277344 -3.296875 C -0.277344 -1.175781 1.476562 0 3.503906 0 C 5.695312 0 8.441406 -1.359375 10.054688 -6.15625 C 10.101562 -6.320312 10.125 -6.480469 10.125 -6.617188 C 10.125 -7.355469 9.480469 -7.886719 8.765625 -7.886719 C 8.1875 -7.886719 7.566406 -7.542969 7.242188 -6.6875 C 6.203125 -3.921875 4.867188 -2.746094 3.78125 -2.746094 C 3.320312 -2.746094 3.066406 -3.019531 3.066406 -3.367188 C 3.066406 -3.460938 3.113281 -3.621094 3.160156 -3.757812 Z M 3.160156 -3.757812 "/></g></g></g></g></g></g></svg>